<?xml version="1.0" standalone="no"?>
<!DOCTYPE svg PUBLIC "-//W3C//DTD SVG 20010904//EN"
 "http://www.w3.org/TR/2001/REC-SVG-20010904/DTD/svg10.dtd">
<svg version="1.0" xmlns="http://www.w3.org/2000/svg"
 width="512.000000pt" height="512.000000pt" viewBox="0 0 512.000000 512.000000"
 preserveAspectRatio="xMidYMid meet">

<g transform="translate(0.000000,512.000000) scale(0.100000,-0.100000)"
fill="#000000" stroke="none">
<path d="M2375 4899 c-782 -64 -1478 -510 -1864 -1196 -324 -576 -385 -1281
-167 -1912 116 -333 289 -611 540 -869 705 -723 1792 -913 2701 -472 491 239
898 659 1115 1150 358 809 242 1724 -306 2422 -129 164 -385 396 -564 510
-199 127 -446 236 -665 293 -166 44 -277 62 -445 75 -150 11 -199 11 -345 -1z
m490 -443 c202 -36 347 -83 524 -167 740 -354 1172 -1135 1076 -1949 -83 -714
-559 -1324 -1230 -1575 -844 -316 -1787 -8 -2282 746 -143 218 -238 464 -290
749 -24 133 -24 467 0 600 39 211 83 352 168 529 286 598 847 997 1519 1080
107 14 408 6 515 -13z"/>
<path d="M2460 4028 c-25 -14 -58 -44 -75 -67 l-30 -43 -3 -696 c-2 -506 0
-708 9 -737 9 -33 70 -99 352 -383 364 -365 397 -392 484 -392 155 0 256 158
192 300 -15 33 -100 125 -319 345 l-300 300 -2 631 -3 631 -27 39 c-44 62 -90
88 -167 92 -55 3 -74 -1 -111 -20z"/>
</g>
</svg>
