<svg width="30" height="30" viewBox="0 0 30 30" fill="none" xmlns="http://www.w3.org/2000/svg">
<path d="M19.2496 14.9881L29.1219 5.11575C30.2927 3.94601 30.2927 2.04805 29.1219 0.877307C27.9512 -0.292436 26.0552 -0.292436 24.8845 0.877307L15.0121 10.7497L5.13973 0.878306C3.96998 -0.292436 2.07202 -0.292436 0.901281 0.878306C-0.268461 2.04805 -0.268461 3.94601 0.901281 5.11675L10.7737 14.9881L0.877307 24.8845C-0.292436 26.0542 -0.292436 27.9522 0.877307 29.1219C1.46168 29.7073 2.22985 30 2.99603 30C3.76221 30 4.53038 29.7073 5.11575 29.1219L15.0111 19.2266L24.8825 29.098C25.4679 29.6833 26.235 29.976 27.0012 29.976C27.7674 29.976 28.5346 29.6833 29.1199 29.098C30.2907 27.9282 30.2907 26.0303 29.1199 24.8605L19.2496 14.9881Z" fill="#31373D"/>
</svg>
