<?xml version="1.0" standalone="no"?>
<!DOCTYPE svg PUBLIC "-//W3C//DTD SVG 20010904//EN"
 "http://www.w3.org/TR/2001/REC-SVG-20010904/DTD/svg10.dtd">
<svg version="1.0" xmlns="http://www.w3.org/2000/svg"
 width="512.000000pt" height="512.000000pt" viewBox="0 0 512.000000 512.000000"
 preserveAspectRatio="xMidYMid meet">

<g transform="translate(0.000000,512.000000) scale(0.100000,-0.100000)"
fill="#000000" stroke="none">
<path d="M975 4636 c-14 -14 -25 -31 -25 -39 0 -21 -38 -52 -107 -86 -120 -60
-159 -113 -151 -202 6 -62 42 -103 132 -150 91 -48 128 -77 124 -101 -2 -15
-32 -37 -95 -72 -139 -78 -163 -107 -163 -196 0 -45 4 -55 39 -93 22 -23 72
-60 113 -81 152 -81 151 -86 -43 -196 -75 -42 -109 -88 -109 -146 0 -47 17
-66 56 -66 31 -1 46 13 60 54 8 25 28 42 101 82 136 76 163 107 163 189 0 76
-31 109 -189 201 -98 57 -95 79 20 141 148 80 174 111 167 201 -4 47 -10 61
-42 92 -20 20 -73 57 -118 82 -129 71 -129 88 -2 157 112 62 155 108 161 170
5 52 -2 64 -44 77 -17 5 -29 1 -48 -18z"/>
<path d="M1599 4646 c-13 -6 -29 -27 -35 -46 -10 -30 -25 -42 -100 -83 -131
-71 -164 -108 -164 -187 0 -79 39 -122 171 -191 56 -29 81 -48 85 -65 8 -32 3
-37 -84 -84 -144 -79 -172 -111 -172 -199 0 -44 5 -56 36 -91 20 -22 71 -58
113 -81 155 -85 154 -89 -40 -199 -75 -42 -109 -88 -109 -146 0 -47 17 -66 56
-66 31 -1 46 13 60 55 8 25 27 40 100 79 132 73 164 109 164 191 0 76 -31 109
-189 201 -98 57 -95 79 20 141 142 77 169 107 169 192 0 75 -36 117 -155 179
-148 78 -147 85 44 193 34 19 72 50 86 71 54 78 16 172 -56 136z"/>
<path d="M3740 4647 c-13 -7 -29 -28 -35 -47 -10 -29 -25 -42 -101 -82 -131
-72 -164 -109 -164 -188 0 -79 33 -116 165 -188 81 -44 90 -52 90 -77 0 -26
-10 -34 -95 -83 -144 -81 -165 -108 -158 -199 6 -68 41 -107 148 -165 154 -84
153 -88 -41 -198 -79 -44 -111 -91 -107 -151 2 -37 8 -46 31 -57 24 -12 31
-11 52 2 14 9 28 30 33 48 7 27 21 39 97 80 132 72 165 109 165 188 0 74 -43
126 -144 177 -131 65 -144 99 -58 148 138 79 158 92 179 124 17 24 23 48 23
85 0 68 -30 111 -109 156 -129 73 -151 89 -151 110 0 21 22 37 151 110 34 19
72 51 85 70 53 77 14 172 -56 137z"/>
<path d="M4350 4647 c-13 -7 -29 -28 -35 -47 -10 -29 -25 -42 -101 -82 -131
-72 -164 -109 -164 -188 0 -79 33 -116 165 -188 81 -44 90 -51 90 -77 0 -25
-9 -34 -70 -68 -157 -87 -185 -117 -185 -197 0 -78 36 -118 169 -193 122 -69
121 -86 -8 -157 -45 -25 -98 -60 -116 -79 -55 -54 -61 -136 -12 -159 24 -12
31 -11 52 2 13 8 28 31 35 50 9 29 23 41 91 76 139 72 176 118 167 211 -6 62
-45 107 -133 151 -150 76 -157 102 -45 165 158 88 180 112 180 198 0 67 -30
110 -109 155 -129 73 -151 89 -151 110 0 21 22 37 151 110 34 19 72 51 85 70
53 77 14 172 -56 137z"/>
<path d="M2499 3780 c-70 -12 -141 -53 -197 -114 -105 -115 -118 -282 -32
-417 17 -25 30 -49 30 -52 0 -4 -13 -7 -29 -7 -41 0 -214 -36 -318 -66 -407
-117 -794 -377 -1064 -714 -251 -313 -416 -726 -455 -1137 l-7 -73 -146 0
c-165 0 -197 -9 -239 -71 -62 -90 19 -317 166 -465 113 -114 252 -178 422
-195 57 -6 858 -8 2000 -7 1768 3 1910 5 1969 21 184 50 348 181 434 346 69
132 85 241 45 301 -42 60 -74 70 -239 70 l-146 0 -12 108 c-35 313 -147 638
-309 899 -153 248 -382 483 -628 649 -108 72 -335 187 -454 229 -108 38 -327
93 -404 101 -36 4 -66 11 -66 15 0 5 13 28 30 51 39 57 64 154 55 221 -15 112
-90 223 -185 272 -38 19 -149 48 -169 44 -3 -1 -27 -5 -52 -9z m156 -138 c189
-92 163 -369 -39 -423 -124 -34 -261 57 -281 186 -17 116 68 234 185 255 44 8
96 1 135 -18z m120 -562 c383 -43 737 -188 1040 -425 163 -128 362 -353 467
-530 104 -174 192 -389 237 -582 21 -90 50 -276 51 -320 l0 -23 -2010 0 -2010
0 0 25 c0 57 34 257 61 364 203 787 873 1378 1684 1484 132 18 356 21 480 7z
m2199 -2052 c0 -34 -11 -70 -42 -130 -87 -175 -238 -282 -435 -308 -104 -14
-3769 -13 -3876 0 -172 22 -315 111 -405 253 -56 88 -92 208 -69 230 3 4 1091
6 2417 5 l2411 -3 -1 -47z"/>
<path d="M2070 2774 c-301 -89 -533 -227 -761 -454 -75 -74 -139 -146 -144
-159 -5 -16 -1 -31 12 -50 37 -49 51 -42 199 107 233 233 466 372 754 448 94
25 125 69 80 114 -25 25 -36 25 -140 -6z"/>
</g>
</svg>
